<svg width="24" height="24" viewBox="0 0 24 24" fill="none" xmlns="http://www.w3.org/2000/svg">
<g clip-path="url(#clip0_217_3064)">
<g clip-path="url(#clip1_217_3064)">
<path d="M12 3C7.02927 3 3 7.02927 3 12C3 16.9707 7.02927 21 12 21C16.9707 21 21 16.9707 21 12C21 7.02989 16.9707 3.00061 12 3ZM16.1275 15.9801C15.966 16.2454 15.6203 16.3284 15.3562 16.1668C13.243 14.8753 10.5826 14.5836 7.44995 15.2991C7.1478 15.3685 6.84688 15.1793 6.7781 14.8772C6.7087 14.575 6.89724 14.2741 7.2 14.2053C10.628 13.4223 13.5691 13.7595 15.9415 15.2088C16.2055 15.3715 16.2897 15.7161 16.1275 15.9801ZM17.2287 13.5304C17.0254 13.8608 16.593 13.964 16.2633 13.7613C13.8448 12.2745 10.1564 11.844 7.29519 12.7124C6.92426 12.8248 6.53245 12.6154 6.41945 12.245C6.30768 11.8741 6.51709 11.4829 6.88741 11.3699C10.1558 10.3781 14.2194 10.8583 16.9971 12.5656C17.3275 12.7689 17.4319 13.2006 17.2287 13.5304ZM17.3232 10.9781C14.4221 9.25548 9.63685 9.09703 6.86714 9.93715C6.42252 10.0723 5.9521 9.82108 5.8176 9.37646C5.68311 8.93183 5.93367 8.46141 6.37892 8.3263C9.55824 7.36151 14.8428 7.5476 18.1824 9.52999C18.5822 9.76766 18.7136 10.2841 18.4766 10.6833C18.2401 11.0837 17.7224 11.2158 17.3232 10.9781Z" fill="#2EBD59"/>
</g>
</g>
<defs>
<clipPath id="clip0_217_3064">
<rect width="18" height="18" fill="white" transform="translate(3 3)"/>
</clipPath>
<clipPath id="clip1_217_3064">
<rect width="18" height="18" fill="white" transform="translate(3 3)"/>
</clipPath>
</defs>
</svg>
