<svg preserveAspectRatio="xMidYMid meet" focusable="false" width="0" height="0" visibility="hidden"
     style="pointer-events: none;position: absolute;" xmlns="http://www.w3.org/2000/svg">
    <symbol id="list" viewBox="0 0 40 40" fill="none">
        <path d="M31.6665 11.6667H16.6665M31.6665 20H16.6665M31.6665 28.3333H16.6665M11.6665 11.6667C11.6665 12.5871 10.9203 13.3333 9.99987 13.3333C9.0794 13.3333 8.33321 12.5871 8.33321 11.6667C8.33321 10.7462 9.0794 10 9.99987 10C10.9203 10 11.6665 10.7462 11.6665 11.6667ZM11.6665 20C11.6665 20.9205 10.9203 21.6667 9.99987 21.6667C9.0794 21.6667 8.33321 20.9205 8.33321 20C8.33321 19.0795 9.0794 18.3333 9.99987 18.3333C10.9203 18.3333 11.6665 19.0795 11.6665 20ZM11.6665 28.3333C11.6665 29.2538 10.9203 30 9.99987 30C9.0794 30 8.33321 29.2538 8.33321 28.3333C8.33321 27.4129 9.0794 26.6667 9.99987 26.6667C10.9203 26.6667 11.6665 27.4129 11.6665 28.3333Z" stroke="currentColor" stroke-width="2" stroke-linecap="round" stroke-linejoin="round"/>
    </symbol>
    <symbol id="heart" viewBox="0 0 40 40" fill="none">
        <path d="M26.9406 6.66675C24.0639 6.66675 22.2564 8.09846 21.2235 9.35651C20.737 9.94908 19.4236 9.94898 18.9371 9.35638C17.9043 8.09836 16.097 6.66675 13.2198 6.66675C8.09009 6.66675 4.99982 11.5573 4.99982 15.5877C4.99982 20.8663 14.2098 28.3075 18.2347 31.3075C19.335 32.1276 20.8254 32.1277 21.9258 31.3077C25.9509 28.3085 35.1606 20.869 35.1606 15.5889C35.1606 11.5573 32.0727 6.66675 26.9406 6.66675Z" stroke="currentColor" stroke-width="2" stroke-linecap="round" stroke-linejoin="round"/>
    </symbol>
    <symbol id="computer" viewBox="0 0 40 40" fill="none">
        <path d="M19.5833 7.5H20.4166M24.1666 28.3333V35M15.8333 35V28.3333M10.8333 35H29.1666M8.33326 5H31.6666C33.5075 5 34.9999 6.49238 34.9999 8.33333V25C34.9999 26.8409 33.5075 28.3333 31.6666 28.3333H8.33326C6.49231 28.3333 4.99992 26.8409 4.99992 25V8.33333C4.99992 6.49238 6.49231 5 8.33326 5Z" stroke="currentColor" stroke-width="2" stroke-linecap="round" stroke-linejoin="round"/>
    </symbol>

</svg>