<svg preserveAspectRatio="xMidYMid meet" focusable="false" width="0" height="0" visibility="hidden"
     style="pointer-events: none;position: absolute;" xmlns="http://www.w3.org/2000/svg">
    <symbol id="home" viewBox="0 0 40 40" fill="none">
        <path d="M31.6666 30V16.3807C31.6666 15.4966 31.2988 14.6691 30.615 14.1088C28.8179 12.6366 25.1612 9.71037 22.2514 7.10941C20.9528 5.94862 18.9787 5.87529 17.6563 7.00883L9.49728 14.0022C8.75846 14.6355 8.33325 15.56 8.33325 16.5331V30C8.33325 31.8409 9.82564 33.3333 11.6666 33.3333H12.4999C14.3409 33.3333 15.8332 31.8409 15.8332 30V26.6666C15.8332 24.8257 17.3256 23.3333 19.1666 23.3333H20.8332C22.6742 23.3333 24.1666 24.8257 24.1666 26.6666V30C24.1666 31.8409 25.659 33.3333 27.4999 33.3333H28.3332C30.1742 33.3333 31.6666 31.8409 31.6666 30Z"
              stroke="currentColor" stroke-width="2" stroke-linecap="round" stroke-linejoin="round"/>
    </symbol>
    <svg id="search" viewBox="0 0 40 40" fill="none">
        <path d="M26.5691 25.7643L33.3341 32.5001M18.3334 10.8335C22.0153 10.8335 25.0001 13.8183 25.0001 17.5002M30.0001 17.5002C30.0001 11.0568 24.7767 5.8335 18.3334 5.8335C11.8901 5.8335 6.66675 11.0568 6.66675 17.5002C6.66675 23.9435 11.8901 29.1668 18.3334 29.1668C24.7767 29.1668 30.0001 23.9435 30.0001 17.5002Z" stroke="currentColor" stroke-width="2" stroke-linecap="round" stroke-linejoin="round"/>
    </svg>
    <symbol id="layers" viewBox="0 0 40 40" fill="none">
        <path d="M25.0001 34.9999H8.33341C6.49246 34.9999 5.00008 33.5076 5.00008 31.6666V15M30.0001 29.9999H13.3334C11.4925 29.9999 10.0001 28.5076 10.0001 26.6666V9.99996M18.3334 4.99976H31.6667C33.5077 4.99976 35.0001 6.49214 35.0001 8.33309V21.6664C35.0001 23.5074 33.5077 24.9997 31.6667 24.9997H18.3334C16.4925 24.9997 15.0001 23.5074 15.0001 21.6664V8.33309C15.0001 6.49214 16.4925 4.99976 18.3334 4.99976Z" stroke="currentColor" stroke-width="2" stroke-linecap="round" stroke-linejoin="round"/>
    </symbol>

</svg>